REM DIRINDEX 1\2\6,1\2\7,1\2\8,1\2\9,1\3\10,1\3\11,1\4\12,1\4\13,1\4\14,1\5\15,1\5\16,1\5\17
REM DIRNAME folder01,folder02,folder03,folder04,folder05,folder06,folder07,folder08,folder09,folder10,folder11,folder12,folder13,folder14,folder15,folder16,folder17
TITLE ""
FILE "1400_3_sec02_0184_0200.mp3" MP3
  TRACK 01 AUDIO
    TITLE "0:"
    INDEX 01 00:00:00
  TRACK 02 AUDIO
    TITLE "17:cjc029_4795"
    INDEX 01 00:00:15
  TRACK 03 AUDIO
    TITLE "0:"
    INDEX 01 00:03:02
  TRACK 04 AUDIO
    TITLE "16:cjc029_4796"
    INDEX 01 00:03:08
  TRACK 05 AUDIO
    TITLE "0:"
    INDEX 01 00:04:29
  TRACK 06 AUDIO
    TITLE "17:cjc029_4797"
    INDEX 01 00:05:14
  TRACK 07 AUDIO
    TITLE "0:"
    INDEX 01 00:06:24
  TRACK 08 AUDIO
    TITLE "16:cjc029_4798"
    INDEX 01 00:06:28
  TRACK 09 AUDIO
    TITLE "0:"
    INDEX 01 00:07:60
  TRACK 10 AUDIO
    TITLE "17:cjc029_4799"
    INDEX 01 00:08:48
  TRACK 11 AUDIO
    TITLE "0:"
    INDEX 01 00:09:63
  TRACK 12 AUDIO
    TITLE "16:cjc029_4800"
    INDEX 01 00:09:69
  TRACK 13 AUDIO
    TITLE "0:"
    INDEX 01 00:11:11
  TRACK 14 AUDIO
    TITLE "17:cjc029_4801"
    INDEX 01 00:11:70
  TRACK 15 AUDIO
    TITLE "0:"
    INDEX 01 00:14:62
  TRACK 16 AUDIO
    TITLE "16:cjc029_4802"
    INDEX 01 00:14:72
  TRACK 17 AUDIO
    TITLE "0:"
    INDEX 01 00:15:60
  TRACK 18 AUDIO
    TITLE "17:cjc029_4803"
    INDEX 01 00:16:59
  TRACK 19 AUDIO
    TITLE "0:"
    INDEX 01 00:17:70
  TRACK 20 AUDIO
    TITLE "16:cjc029_4804"
    INDEX 01 00:18:01
  TRACK 21 AUDIO
    TITLE "0:"
    INDEX 01 00:19:11
  TRACK 22 AUDIO
    TITLE "17:cjc029_4805"
    INDEX 01 00:19:73
  TRACK 23 AUDIO
    TITLE "0:"
    INDEX 01 00:23:26
  TRACK 24 AUDIO
    TITLE "16:cjc029_4806"
    INDEX 01 00:23:34
  TRACK 25 AUDIO
    TITLE "0:"
    INDEX 01 00:24:35
  TRACK 26 AUDIO
    TITLE "17:cjc029_4807"
    INDEX 01 00:25:19
  TRACK 27 AUDIO
    TITLE "0:"
    INDEX 01 00:26:38
  TRACK 28 AUDIO
    TITLE "16:cjc029_4808"
    INDEX 01 00:26:44
  TRACK 29 AUDIO
    TITLE "0:"
    INDEX 01 00:28:00
  TRACK 30 AUDIO
    TITLE "17:cjc029_4809"
    INDEX 01 00:28:60
  TRACK 31 AUDIO
    TITLE "0:"
    INDEX 01 00:29:74
  TRACK 32 AUDIO
    TITLE "16:cjc029_4810"
    INDEX 01 00:30:06
  TRACK 33 AUDIO
    TITLE "0:"
    INDEX 01 00:31:18
  TRACK 34 AUDIO
    TITLE "17:cjc029_4811"
    INDEX 01 00:32:03
  TRACK 35 AUDIO
    TITLE "0:"
    INDEX 01 00:33:26
  TRACK 36 AUDIO
    TITLE "16:cjc029_4812"
    INDEX 01 00:33:32
  TRACK 37 AUDIO
    TITLE "0:"
    INDEX 01 00:34:53
  TRACK 38 AUDIO
    TITLE "17:cjc029_4813"
    INDEX 01 00:35:41
  TRACK 39 AUDIO
    TITLE "0:"
    INDEX 01 00:36:62
  TRACK 40 AUDIO
    TITLE "16:cjc029_4814"
    INDEX 01 00:36:70
  TRACK 41 AUDIO
    TITLE "0:"
    INDEX 01 00:37:69
  TRACK 42 AUDIO
    TITLE "17:cjc029_4815"
    INDEX 01 00:38:51
  TRACK 43 AUDIO
    TITLE "0:"
    INDEX 01 00:40:66
  TRACK 44 AUDIO
    TITLE "16:cjc029_4816"
    INDEX 01 00:40:70
  TRACK 45 AUDIO
    TITLE "0:"
    INDEX 01 00:41:71
  TRACK 46 AUDIO
    TITLE "17:cjc029_4817"
    INDEX 01 00:42:57
  TRACK 47 AUDIO
    TITLE "0:"
    INDEX 01 00:44:03
  TRACK 48 AUDIO
    TITLE "16:cjc029_4818"
    INDEX 01 00:44:07
  TRACK 49 AUDIO
    TITLE "0:"
    INDEX 01 00:45:45
  TRACK 50 AUDIO
    TITLE "17:cjc029_4819"
    INDEX 01 00:46:31
  TRACK 51 AUDIO
    TITLE "0:"
    INDEX 01 00:47:36
  TRACK 52 AUDIO
    TITLE "16:cjc029_4820"
    INDEX 01 00:47:38
  TRACK 53 AUDIO
    TITLE "0:"
    INDEX 01 00:48:65
  TRACK 54 AUDIO
    TITLE "17:cjc029_4821"
    INDEX 01 00:49:53
  TRACK 55 AUDIO
    TITLE "0:"
    INDEX 01 00:51:09
  TRACK 56 AUDIO
    TITLE "16:cjc029_4822"
    INDEX 01 00:51:13
  TRACK 57 AUDIO
    TITLE "0:"
    INDEX 01 00:52:32
  TRACK 58 AUDIO
    TITLE "17:cjc029_4823"
    INDEX 01 00:53:17
  TRACK 59 AUDIO
    TITLE "0:"
    INDEX 01 00:54:36
  TRACK 60 AUDIO
    TITLE "16:cjc029_4824"
    INDEX 01 00:54:42
  TRACK 61 AUDIO
    TITLE "0:"
    INDEX 01 00:55:59
  TRACK 62 AUDIO
    TITLE "17:cjc029_4825"
    INDEX 01 00:56:41
  TRACK 63 AUDIO
    TITLE "0:"
    INDEX 01 00:58:09
  TRACK 64 AUDIO
    TITLE "16:cjc029_4826"
    INDEX 01 00:58:15
  TRACK 65 AUDIO
    TITLE "0:"
    INDEX 01 00:59:38
  TRACK 66 AUDIO
    TITLE "17:cjc029_4827"
    INDEX 01 01:00:19
  TRACK 67 AUDIO
    TITLE "0:"
    INDEX 01 01:01:23
  TRACK 68 AUDIO
    TITLE "16:cjc029_4828"
    INDEX 01 01:01:29
  TRACK 69 AUDIO
    TITLE "0:"
    INDEX 01 01:02:42
